<svg width="1200" height="900" viewBox="0 0 1200 900" fill="none" xmlns="http://www.w3.org/2000/svg">
  <rect width="1200" height="900" rx="48" fill="#08101F"/>
  <rect x="90" y="90" width="1020" height="720" rx="34" fill="url(#bg)"/>
  <rect x="180" y="190" width="840" height="500" rx="36" fill="#0C1730"/>
  <path d="M242 580C334 550 410 486 500 452C582 422 644 430 732 362C790 318 842 292 958 252" stroke="url(#stroke)" stroke-width="18" stroke-linecap="round"/>
  <circle cx="500" cy="452" r="32" fill="#FFD59A"/>
  <circle cx="732" cy="362" r="24" fill="#F4F8FF"/>
  <circle cx="958" cy="252" r="20" fill="#8DE6FF"/>
  <rect x="236" y="246" width="160" height="52" rx="18" fill="#F4F8FF" fill-opacity=".88"/>
  <rect x="236" y="326" width="220" height="24" rx="12" fill="#F4F8FF" fill-opacity=".54"/>
  <rect x="236" y="364" width="188" height="24" rx="12" fill="#F4F8FF" fill-opacity=".38"/>
  <defs>
    <linearGradient id="bg" x1="90" y1="90" x2="1110" y2="810" gradientUnits="userSpaceOnUse">
      <stop stop-color="#111935"/>
      <stop offset="1" stop-color="#26192F"/>
    </linearGradient>
    <linearGradient id="stroke" x1="242" y1="580" x2="958" y2="252" gradientUnits="userSpaceOnUse">
      <stop stop-color="#8DE6FF"/>
      <stop offset=".45" stop-color="#FFD59A"/>
      <stop offset="1" stop-color="#FF9DCF"/>
    </linearGradient>
  </defs>
</svg>
