<svg xmlns="http://www.w3.org/2000/svg" viewBox="0 0 1200 720">
  <defs>
    <linearGradient id="bg" x1="0" x2="1" y1="0" y2="1">
      <stop offset="0%" stop-color="#13161d"/>
      <stop offset="100%" stop-color="#222831"/>
    </linearGradient>
    <linearGradient id="metal" x1="0" x2="1">
      <stop offset="0%" stop-color="#d3d6db"/>
      <stop offset="100%" stop-color="#8d96a3"/>
    </linearGradient>
  </defs>
  <rect width="1200" height="720" fill="url(#bg)"/>
  <rect x="0" y="0" width="1200" height="100" fill="#0f1218"/>
  <rect x="82" y="96" width="18" height="624" fill="#2f3744"/>
  <rect x="1100" y="96" width="18" height="624" fill="#2f3744"/>
  <rect x="150" y="124" width="900" height="26" fill="#2f3744"/>
  <rect x="0" y="560" width="1200" height="160" fill="#0b0e12"/>
  <path d="M263 471c67-79 143-119 245-129 123-13 270 8 388 41 41 12 76 31 99 60l70 88H186l77-60Z" fill="url(#metal)"/>
  <path d="M350 404h252c92 0 168 13 268 43l48 18H296l54-61Z" fill="#3b4452"/>
  <circle cx="347" cy="540" r="56" fill="#151a22"/>
  <circle cx="347" cy="540" r="30" fill="#8f98a5"/>
  <circle cx="877" cy="540" r="56" fill="#151a22"/>
  <circle cx="877" cy="540" r="30" fill="#8f98a5"/>
  <rect x="192" y="208" width="118" height="182" rx="18" fill="#161b24"/>
  <rect x="890" y="194" width="132" height="196" rx="18" fill="#161b24"/>
</svg>
